<svg
    xmlns="http://www.w3.org/2000/svg"
    viewBox="0 0 800 800"
    id="vector">
    <g
        id="splashgroup"
        transform="translate(480 480) scale(0.6 0.6) translate(-480 -480)">
        <path
            fill="#000000"
            d="M245.9,646.6c6.2,-6.2 11.1,-13.3 14.7,-20.8 29.4,26.5 74.8,25.6 103.1,-2.8s29.3,-76.8 0,-106.1l-212.1,-212.1c-29.3,-29.3 -76.8,-29.3 -106.1,0 -28.3,28.3 -29.3,73.7 -2.8,103.1 -7.5,3.6 -14.6,8.5 -20.8,14.7 -29.3,29.3 -29.3,76.8 0,106.1l117.9,117.9c29.3,29.3 76.8,29.3 106.1,0Z" />
        <path
            fill="#000000"
            d="M304.8,151.6c-29.3,-29.3 -29.3,-76.8 0,-106.1 28.3,-28.3 73.7,-29.3 103.1,-2.8 3.6,-7.5 8.5,-14.6 14.7,-20.8 29.3,-29.3 76.8,-29.3 106.1,0l117.9,117.9c29.3,29.3 29.3,76.8 0,106.1s-13.3,11.1 -20.8,14.7c26.5,29.4 25.6,74.8 -2.8,103.1s-76.8,29.3 -106.1,0l-212.1,-212.1Z" />
        <path
            fill="#000000"
            d="M346.1,251.8l-94.3,94.3 70.7,70.7 94.3,-94.3 -70.7,-70.7Z" />
    </g>
</svg>